# xmcd
#
# Track frame offsets:
#	150
#	16508
#	31470
#	43465
#	62465
#	76942
#	92989
#	105935
#	122426
#	137378
#
# Disc length: 2073 seconds
#
# Revision: 1
# Processed by: cddbd v1.5.2PL0 Copyright (c) Steve Scherf et al.
# Submitted via: EasyCDDAExtractor 7.0.3.1
#
DISCID=6e08170a
DTITLE=Various Artist - CDX-438 December 2007
DYEAR=2007
DGENRE=Country
TTITLE0=Carrie Underwood - All American Girl
TTITLE1=Rockie Lynne - I Can't Believe It's Me
TTITLE2=Faron Young - Are You Hungry? Eat Your Import
TTITLE3=Eddie P. Briley - Daddy's Girl
TTITLE4=Shilo - Dodgin' a Ford In My Chevrolet
TTITLE5=Mechele Warren  - I Don't Drink Champagne
TTITLE6=Paula Hernandez - I Need A Kiss
TTITLE7=April Taylor - I Wanna Live Like That
TTITLE8=Kevin Wood - Sweet Little Girl
TTITLE9=Tonya Watts - Cumberland Angels 
EXTD=
EXTT0=
EXTT1=
EXTT2=
EXTT3=
EXTT4=
EXTT5=
EXTT6=
EXTT7=
EXTT8=
EXTT9=
PLAYORDER=
